<?xml version="1.0" standalone="no"?>
<!DOCTYPE svg PUBLIC "-//W3C//DTD SVG 20010904//EN"
 "http://www.w3.org/TR/2001/REC-SVG-20010904/DTD/svg10.dtd">
<svg version="1.0" xmlns="http://www.w3.org/2000/svg"
 width="724.000000pt" height="714.000000pt" viewBox="0 0 724.000000 714.000000"
 preserveAspectRatio="xMidYMid meet">
<metadata>
Created by potrace 1.16, written by Peter Selinger 2001-2019
</metadata>
<g transform="translate(0.000000,714.000000) scale(0.100000,-0.100000)"
fill="#000000" stroke="none">
<path d="M3760 5982 c-41 -20 -77 -70 -86 -120 -4 -20 -1 -91 6 -158 11 -107
11 -127 -4 -175 -18 -59 -41 -91 -97 -132 -51 -38 -108 -56 -237 -77 -104 -16
-114 -16 -119 -1 -29 93 -68 149 -132 191 -76 48 -147 72 -237 77 -79 6 -81 5
-117 -27 -26 -22 -41 -48 -52 -84 -16 -55 -65 -385 -65 -435 0 -17 -4 -31 -8
-31 -4 0 -28 20 -52 45 -58 60 -179 143 -241 166 -58 22 -146 25 -193 5 -153
-64 -187 -263 -65 -385 62 -63 161 -100 294 -110 l80 -6 -72 -48 c-85 -58
-218 -179 -256 -235 -22 -31 -28 -49 -26 -83 2 -44 3 -44 42 -47 37 -3 43 1
136 97 90 91 264 222 277 208 3 -3 -11 -72 -30 -154 -83 -337 -247 -763 -368
-949 -104 -161 -224 -270 -442 -400 -125 -75 -174 -118 -211 -185 -27 -49 -30
-62 -30 -149 0 -87 3 -101 32 -161 66 -133 215 -232 398 -264 102 -18 318 -20
432 -4 234 32 456 111 676 242 43 26 81 47 83 47 2 0 4 -69 4 -152 l0 -153
417 2 418 3 2 330 2 330 93 108 c225 259 272 312 278 312 4 0 173 -232 376
-517 203 -284 379 -528 390 -542 l22 -26 511 3 512 2 -43 59 c-122 167 -267
366 -393 541 -78 107 -222 306 -321 441 -98 135 -200 275 -225 310 -25 35 -83
115 -128 177 -58 79 -80 118 -76 131 10 33 178 185 260 235 262 159 383 260
504 419 152 202 225 390 219 569 l-3 97 130 146 c72 81 132 151 133 156 2 5
-207 9 -490 9 l-494 0 -105 -122 c-57 -67 -120 -140 -140 -162 -201 -231 -238
-282 -289 -402 -57 -131 -93 -200 -153 -287 -47 -67 -383 -390 -398 -382 -5 4
-7 11 -4 16 4 5 1 9 -4 9 -14 0 -14 -13 0 -27 9 -9 0 -25 -36 -65 -81 -90
-208 -293 -328 -523 -190 -365 -210 -401 -327 -555 -111 -146 -364 -369 -403
-355 -7 3 -25 -4 -38 -16 l-24 -21 28 17 c16 9 31 15 33 12 6 -6 -105 -76
-186 -117 -101 -51 -269 -108 -408 -137 -110 -24 -150 -27 -297 -27 -179 0
-249 11 -320 47 l-40 21 55 8 c308 42 599 137 845 276 172 97 380 274 505 428
82 102 190 278 320 519 62 116 142 255 179 310 81 123 225 274 345 362 243
179 287 213 364 287 288 276 323 490 121 741 -57 71 -300 308 -424 414 -113
96 -205 123 -285 83z m143 -152 c26 -16 84 -65 129 -109 l82 -78 -32 -50 c-44
-69 -125 -243 -155 -338 -68 -206 -97 -432 -79 -610 l10 -99 -117 -116 c-171
-169 -242 -270 -414 -595 -173 -327 -270 -468 -431 -622 -238 -230 -503 -371
-871 -463 -162 -41 -328 -65 -376 -55 -61 14 -79 111 -32 182 19 30 52 56 117
95 219 129 376 262 485 411 41 56 177 307 193 356 5 17 33 0 120 -76 64 -54
85 -63 121 -51 27 10 45 46 38 78 -4 24 -59 78 -142 139 l-75 57 27 82 c15 45
30 86 34 92 7 11 63 -26 146 -97 30 -25 61 -43 75 -43 31 0 74 42 74 71 0 27
-76 100 -172 166 -38 26 -68 51 -68 57 0 11 41 169 46 174 4 6 83 -51 142
-102 61 -52 99 -59 132 -24 35 38 26 70 -34 126 -30 27 -86 70 -125 95 -38 26
-72 51 -75 56 -3 5 -1 32 5 59 12 48 13 50 50 54 36 3 43 -1 103 -62 92 -93
166 -195 220 -299 53 -102 79 -127 119 -112 28 11 47 39 47 67 0 31 -78 176
-145 269 -35 49 -63 91 -61 92 2 2 37 -5 77 -16 106 -28 168 -34 233 -22 144
27 218 105 218 231 0 70 -19 117 -67 163 -57 55 -117 71 -244 64 -110 -5 -214
-30 -356 -86 -41 -16 -77 -24 -86 -20 -8 4 -21 10 -30 12 -14 5 -14 16 2 129
43 312 53 371 65 383 23 23 137 -12 202 -62 32 -24 62 -76 62 -105 0 -7 -19
-22 -42 -32 -22 -10 -56 -33 -75 -49 -34 -30 -93 -121 -93 -143 0 -14 141 26
215 61 58 28 145 50 230 60 172 19 308 72 388 151 97 96 126 202 106 389 -7
61 -10 119 -6 128 9 25 37 21 90 -13z m373 -342 c65 -67 130 -151 153 -197 46
-90 33 -170 -47 -292 -82 -124 -311 -326 -357 -313 -14 4 -16 2 -7 -4 10 -7
10 -11 -2 -22 -25 -20 -30 9 -23 149 7 160 38 316 88 449 37 99 127 282 139
282 3 0 29 -24 56 -52z m1330 -23 c64 -19 119 -65 149 -125 32 -64 40 -115 26
-182 l-12 -55 -74 15 c-74 14 -75 15 -75 45 0 17 -9 50 -21 74 -26 54 -72 77
-141 69 l-46 -5 -26 71 c-15 39 -23 75 -19 79 10 10 97 26 149 28 22 0 63 -6
90 -14z m-3283 -398 c33 -17 100 -70 150 -118 l92 -88 -65 0 c-101 -1 -234 17
-282 38 -103 44 -131 151 -51 195 37 21 82 13 156 -27z m1044 -194 c32 -21 48
-75 31 -110 -36 -76 -154 -81 -362 -13 -69 22 -128 45 -131 49 -6 11 171 69
267 86 81 15 161 10 195 -12z m1734 -465 c17 -33 29 -61 27 -63 -2 -2 -24 -15
-50 -29 l-47 -26 -16 58 c-9 31 -18 64 -21 73 -5 17 53 60 69 52 4 -3 21 -32
38 -65z m-917 -421 c59 -22 64 -27 84 -79 13 -31 45 -55 86 -62 36 -7 37 -7
69 -83 l26 -62 -41 -11 c-50 -14 -130 -4 -180 21 -60 31 -114 109 -132 191 -8
37 4 108 18 107 6 0 38 -10 70 -22z m694 -212 c35 -49 50 -79 46 -92 -4 -14
-3 -15 4 -4 7 10 19 0 51 -45 23 -33 72 -102 111 -154 38 -52 68 -101 65 -108
-3 -7 -1 -10 5 -7 5 3 30 -23 55 -57 152 -208 205 -282 325 -448 73 -102 164
-226 202 -277 37 -50 68 -94 68 -97 0 -3 -148 -6 -328 -6 l-329 0 -64 90 c-35
50 -91 128 -125 173 -33 45 -86 120 -119 167 -32 47 -111 157 -175 245 -64 88
-155 214 -202 280 l-86 120 56 16 c32 9 70 22 85 28 23 9 33 8 50 -4 28 -20
37 -19 37 3 0 12 -3 13 -8 5 -7 -10 -12 -10 -26 0 -16 12 -13 16 33 46 28 18
86 70 128 117 43 46 80 84 83 83 3 0 29 -33 58 -74z"/>
<path d="M2270 1900 c-202 -74 -312 -272 -265 -477 39 -170 171 -287 356 -316
131 -20 289 26 368 107 39 40 39 41 -41 108 l-49 41 -32 -31 c-46 -44 -96 -62
-175 -62 -128 0 -216 71 -242 195 -18 89 7 170 72 232 47 45 96 63 176 63 74
0 148 -29 185 -72 l18 -21 59 58 60 59 -33 34 c-17 18 -61 47 -97 65 -60 29
-74 32 -185 34 -101 3 -129 0 -175 -17z"/>
<path d="M3932 1902 c-111 -40 -173 -118 -174 -221 -1 -78 24 -126 86 -169 48
-32 69 -39 234 -83 102 -26 132 -48 132 -94 0 -26 -6 -39 -25 -51 -64 -42
-200 -33 -305 19 -36 18 -68 34 -73 35 -7 4 -67 -115 -67 -133 0 -16 96 -62
170 -82 87 -23 246 -23 315 1 121 43 180 117 180 227 0 55 -5 72 -27 107 -39
58 -93 86 -246 126 -73 20 -143 43 -157 52 -54 35 -37 102 31 124 58 19 178 8
248 -24 33 -14 60 -25 61 -24 4 5 55 134 55 140 0 3 -30 18 -67 34 -60 24 -83
28 -193 31 -103 3 -134 0 -178 -15z"/>
<path d="M5175 1911 c-111 -29 -216 -115 -268 -221 -30 -61 -32 -71 -32 -175
0 -99 3 -116 27 -168 36 -76 116 -160 189 -196 166 -83 388 -57 511 60 l40 38
-62 55 -63 54 -36 -28 c-53 -43 -106 -61 -175 -62 -77 0 -136 23 -177 70 -118
134 -78 343 78 409 55 23 161 17 220 -12 28 -14 58 -34 68 -45 17 -19 19 -19
76 31 33 28 59 55 59 61 0 19 -67 71 -130 101 -60 29 -74 32 -180 34 -63 1
-128 -2 -145 -6z"/>
<path d="M6015 1906 c-121 -39 -215 -120 -263 -224 -37 -81 -43 -214 -13 -303
52 -155 192 -259 368 -275 189 -17 362 75 440 235 26 51 28 66 28 171 0 108
-2 119 -31 180 -39 83 -106 150 -192 192 -62 31 -74 33 -182 35 -74 2 -129 -2
-155 -11z m240 -165 c87 -41 137 -123 136 -227 -1 -148 -97 -246 -241 -245
-144 0 -242 100 -243 246 -1 145 98 245 243 245 42 0 79 -7 105 -19z"/>
<path d="M752 1513 l3 -398 90 0 90 0 5 107 5 108 50 50 50 50 110 -142 c61
-78 117 -150 126 -159 14 -14 37 -17 123 -17 59 1 105 4 104 9 -3 8 -221 292
-296 386 l-44 54 60 62 c32 34 105 112 160 172 l101 110 -102 3 -102 3 -85
-88 c-47 -48 -125 -130 -173 -181 l-87 -93 0 180 0 181 -95 0 -95 0 2 -397z"/>
<path d="M1640 1510 l0 -400 89 0 c84 0 89 1 93 23 2 12 2 192 0 400 l-4 377
-89 0 -89 0 0 -400z"/>
<path d="M2910 1510 l0 -401 93 3 92 3 2 98 1 98 47 54 c26 30 52 55 59 55 7
0 23 -15 36 -32 40 -56 204 -263 213 -269 13 -9 217 -10 217 -1 0 4 -45 66
-101 137 -198 256 -229 298 -229 309 1 6 70 85 154 176 l154 165 -105 3 -104
3 -92 -98 c-51 -54 -124 -132 -162 -174 -39 -43 -73 -77 -77 -78 -5 -1 -8 78
-8 174 l0 175 -95 0 -95 0 0 -400z"/>
<path d="M6687 1310 c-76 -60 -43 -184 52 -197 98 -13 160 72 119 162 -25 54
-121 74 -171 35z"/>
</g>
</svg>
